<?xml version="1.0" standalone="no"?>
<!DOCTYPE svg PUBLIC "-//W3C//DTD SVG 20010904//EN"
 "http://www.w3.org/TR/2001/REC-SVG-20010904/DTD/svg10.dtd">
<svg version="1.0" xmlns="http://www.w3.org/2000/svg"
 width="324.000000pt" height="324.000000pt" viewBox="0 0 324.000000 324.000000"
 preserveAspectRatio="xMidYMid meet">
<metadata>
Created by potrace 1.11, written by Peter Selinger 2001-2013
</metadata>
<g transform="translate(0.000000,324.000000) scale(0.100000,-0.100000)"
fill="#000000" stroke="none">
<path d="M1522 3040 c-53 -11 -1091 -607 -1143 -657 -20 -19 -47 -55 -60 -81
l-24 -47 -3 -658 -2 -657 25 -54 c14 -30 44 -71 68 -93 49 -45 1039 -619 1112
-645 64 -22 127 -22 190 0 73 26 1074 607 1117 649 20 20 48 62 62 94 l27 58
-3 653 -3 653 -30 54 c-16 30 -46 67 -65 83 -45 38 -1057 622 -1102 636 -52
17 -119 21 -166 12z m144 -125 c61 -18 986 -551 1031 -594 18 -17 45 -55 60
-84 l28 -52 3 -574 c3 -641 3 -635 -65 -725 -34 -45 -84 -76 -528 -332 -343
-198 -505 -287 -541 -295 -99 -22 -143 -9 -341 105 -568 326 -800 463 -828
487 -17 15 -44 52 -61 81 l-29 53 -3 586 c-3 574 -2 588 18 643 37 97 67 118
575 411 257 149 478 274 489 279 67 28 125 31 192 11z"/>
<path d="M1138 2131 c-54 -4 -101 -11 -105 -15 -5 -4 -8 -230 -8 -502 0 -413
2 -496 14 -503 23 -15 306 -24 446 -14 l130 8 3 28 3 27 -254 0 -254 0 -7 77
c-3 42 -6 136 -6 210 l0 133 230 0 230 0 0 35 0 35 -230 0 -230 0 0 211 0 210
260 -3 260 -3 0 26 c0 20 -6 28 -22 32 -41 10 -361 15 -460 8z"/>
<path d="M1736 1894 c-8 -60 -6 -719 3 -759 l6 -30 95 -5 c175 -9 236 13 287
105 27 47 28 57 28 180 0 116 -2 135 -23 172 -27 52 -57 81 -101 100 -37 16
-132 20 -200 8 l-41 -7 0 141 0 141 -24 0 c-20 0 -24 -6 -30 -46z m299 -304
c52 -49 60 -75 60 -205 0 -130 -8 -156 -60 -205 -24 -23 -35 -25 -136 -28
l-109 -4 0 230 c0 175 3 232 13 236 6 3 56 4 109 3 88 -2 99 -4 123 -27z"/>
</g>
</svg>
